<svg width="48" height="48" viewBox="0 0 48 48" fill="none" xmlns="http://www.w3.org/2000/svg">
<path d="M27 10H15.75C15.0207 10 14.3212 10.295 13.8055 10.8201C13.2897 11.3452 13 12.0574 13 12.8V35.2C13 35.9426 13.2897 36.6548 13.8055 37.1799C14.3212 37.705 15.0207 38 15.75 38H32.25C32.9793 38 33.6788 37.705 34.1945 37.1799C34.7103 36.6548 35 35.9426 35 35.2V18L27 10Z" stroke="black" stroke-linecap="round" stroke-linejoin="round"/>
<path d="M27 10V18H35" stroke="black" stroke-linecap="round" stroke-linejoin="round"/>
<path d="M30 26H18" stroke="black" stroke-linecap="round" stroke-linejoin="round"/>
<path d="M30 31H18" stroke="black" stroke-linecap="round" stroke-linejoin="round"/>
<path d="M21 21H19.5H18" stroke="black" stroke-linecap="round" stroke-linejoin="round"/>
</svg>
