<svg width="48" height="48" viewBox="0 0 48 48" fill="none" xmlns="http://www.w3.org/2000/svg">
<path d="M30 11H33C33.7956 11 34.5587 11.3161 35.1213 11.8787C35.6839 12.4413 36 13.2044 36 14V35C36 35.7956 35.6839 36.5587 35.1213 37.1213C34.5587 37.6839 33.7956 38 33 38H15C14.2044 38 13.4413 37.6839 12.8787 37.1213C12.3161 36.5587 12 35.7956 12 35V14C12 13.2044 12.3161 12.4413 12.8787 11.8787C13.4413 11.3161 14.2044 11 15 11H18" stroke="black" stroke-linecap="round" stroke-linejoin="round"/>
<path d="M28.5 8H19.5C18.6716 8 18 8.67157 18 9.5V12.5C18 13.3284 18.6716 14 19.5 14H28.5C29.3284 14 30 13.3284 30 12.5V9.5C30 8.67157 29.3284 8 28.5 8Z" stroke="black" stroke-linecap="round" stroke-linejoin="round"/>
</svg>
