<svg width="48" height="48" viewBox="0 0 48 48" fill="none" xmlns="http://www.w3.org/2000/svg">
<path d="M12 33V24.6C12 21.2583 13.2643 18.0534 15.5147 15.6905C17.7652 13.3275 20.8174 12 24 12C27.1826 12 30.2348 13.3275 32.4853 15.6905C34.7357 18.0534 36 21.2583 36 24.6V33" stroke="black" stroke-linecap="round" stroke-linejoin="round"/>
<path d="M36 33.4286C36 34.1106 35.719 34.7646 35.219 35.2468C34.7189 35.7291 34.0406 36 33.3333 36H32C31.2928 36 30.6145 35.7291 30.1144 35.2468C29.6143 34.7646 29.3333 34.1106 29.3333 33.4286V29.5714C29.3333 28.8894 29.6143 28.2354 30.1144 27.7532C30.6145 27.2709 31.2928 27 32 27H36V33.4286ZM12 33.4286C12 34.1106 12.281 34.7646 12.781 35.2468C13.2811 35.7291 13.9594 36 14.6667 36H16C16.7072 36 17.3855 35.7291 17.8856 35.2468C18.3857 34.7646 18.6667 34.1106 18.6667 33.4286V29.5714C18.6667 28.8894 18.3857 28.2354 17.8856 27.7532C17.3855 27.2709 16.7072 27 16 27H12V33.4286Z" stroke="black" stroke-linecap="round" stroke-linejoin="round"/>
</svg>
