<svg width="48" height="48" viewBox="0 0 48 48" fill="none" xmlns="http://www.w3.org/2000/svg">
<path d="M30 18.9167C30.004 20.4565 29.6442 21.9755 28.95 23.35C28.1268 24.997 26.8613 26.3824 25.2953 27.3508C23.7293 28.3193 21.9246 28.8326 20.0833 28.8333C18.5435 28.8374 17.0245 28.4776 15.65 27.7833L9 30L11.2167 23.35C10.5224 21.9755 10.1627 20.4565 10.1667 18.9167C10.1674 17.0754 10.6807 15.2707 11.6492 13.7047C12.6176 12.1387 14.003 10.8732 15.65 10.05C17.0245 9.35579 18.5435 8.99602 20.0833 9.00003H20.6666C23.0984 9.13419 25.3952 10.1606 27.1173 11.8827C28.8394 13.6048 29.8658 15.9016 30 18.3334V18.9167Z" stroke="black" stroke-linecap="round" stroke-linejoin="round"/>
<path d="M30.0108 18H36.6241C37.2695 18 37.8885 18.2564 38.3448 18.7128C38.8012 19.1692 39.0576 19.7881 39.0576 20.4336V37.5576L34.1013 33H23.1454C22.5 33 21.881 32.7436 21.4246 32.2872C20.9682 31.8308 20.7119 31.2119 20.7119 30.5664V28.8576" stroke="black" stroke-linecap="round" stroke-linejoin="round"/>
</svg>
