<svg width="48" height="48" viewBox="0 0 48 48" fill="none" xmlns="http://www.w3.org/2000/svg">
<path d="M29 10.4C29 9.07452 27.8487 8 26.4286 8H13.5714C12.1513 8 11 9.07452 11 10.4V29.6C11 30.9255 12.1513 32 13.5714 32" stroke="black" stroke-linecap="round" stroke-linejoin="round"/>
<path d="M33 14.4C33 13.0745 31.8487 12 30.4286 12H17.5714C16.1513 12 15 13.0745 15 14.4V33.6C15 34.9255 16.1513 36 17.5714 36" stroke="black" stroke-linecap="round" stroke-linejoin="round"/>
<path d="M34.4286 16H21.5714C20.1513 16 19 17.0745 19 18.4V37.6C19 38.9255 20.1513 40 21.5714 40H34.4286C35.8487 40 37 38.9255 37 37.6V18.4C37 17.0745 35.8487 16 34.4286 16Z" stroke="black" stroke-linecap="round" stroke-linejoin="round"/>
</svg>
