<svg width="48" height="48" viewBox="0 0 48 48" fill="none" xmlns="http://www.w3.org/2000/svg">
<path d="M36 23.7395C36.0047 25.5482 35.5821 27.3323 34.7667 28.9467C33.7998 30.8812 32.3135 32.5083 30.4741 33.6458C28.6348 34.7833 26.5151 35.3863 24.3524 35.3871C22.5438 35.3918 20.7596 34.9693 19.1452 34.1538L11.3345 36.7574L13.9381 28.9467C13.1227 27.3323 12.7001 25.5482 12.7048 23.7395C12.7056 21.5769 13.3086 19.4571 14.4461 17.6178C15.5836 15.7784 17.2107 14.2921 19.1452 13.3252C20.7596 12.5098 22.5438 12.0872 24.3524 12.092H25.0375C27.8937 12.2495 30.5914 13.4551 32.6141 15.4778C34.6368 17.5005 35.8424 20.1982 36 23.0544V23.7395Z" stroke="black" stroke-linecap="round" stroke-linejoin="round"/>
</svg>
