<svg width="48" height="48" viewBox="0 0 48 48" fill="none" xmlns="http://www.w3.org/2000/svg">
<path d="M39 24.1501H29.8875L26.85 28.7064H20.775L17.7375 24.1501H8.625" stroke="black" stroke-linecap="round" stroke-linejoin="round"/>
<path d="M13.8647 13.6858L8.625 24.15V33.2625C8.625 34.0681 8.94502 34.8407 9.51466 35.4103C10.0843 35.98 10.8569 36.3 11.6625 36.3H35.9625C36.7681 36.3 37.5407 35.98 38.1104 35.4103C38.68 34.8407 39 34.0681 39 33.2625V24.15L33.7603 13.6858C33.5089 13.1797 33.1212 12.7539 32.6409 12.456C32.1607 12.1582 31.6069 12.0003 31.0418 12H16.5833C16.0182 12.0003 15.4643 12.1582 14.9841 12.456C14.5038 12.7539 14.1162 13.1797 13.8647 13.6858V13.6858Z" stroke="black" stroke-linecap="round" stroke-linejoin="round"/>
</svg>
