<svg width="48" height="48" viewBox="0 0 48 48" fill="none" xmlns="http://www.w3.org/2000/svg">
<path d="M20.5 11H12.5C11.6716 11 11 11.6716 11 12.5V20.5C11 21.3284 11.6716 22 12.5 22H20.5C21.3284 22 22 21.3284 22 20.5V12.5C22 11.6716 21.3284 11 20.5 11Z" stroke="black" stroke-linecap="round" stroke-linejoin="round"/>
<path d="M20.5 26H12.5C11.6716 26 11 26.6716 11 27.5V35.5C11 36.3284 11.6716 37 12.5 37H20.5C21.3284 37 22 36.3284 22 35.5V27.5C22 26.6716 21.3284 26 20.5 26Z" stroke="black" stroke-linecap="round" stroke-linejoin="round"/>
<path d="M35.5 11H27.5C26.6716 11 26 11.6716 26 12.5V20.5C26 21.3284 26.6716 22 27.5 22H35.5C36.3284 22 37 21.3284 37 20.5V12.5C37 11.6716 36.3284 11 35.5 11Z" stroke="black" stroke-linecap="round" stroke-linejoin="round"/>
<path d="M35.5 26H27.5C26.6716 26 26 26.6716 26 27.5V35.5C26 36.3284 26.6716 37 27.5 37H35.5C36.3284 37 37 36.3284 37 35.5V27.5C37 26.6716 36.3284 26 35.5 26Z" stroke="black" stroke-linecap="round" stroke-linejoin="round"/>
</svg>
