<svg width="48" height="48" viewBox="0 0 48 48" fill="none" xmlns="http://www.w3.org/2000/svg">
<path d="M34.9231 18H21.0769C19.3776 18 18 19.3776 18 21.0769V34.9231C18 36.6224 19.3776 38 21.0769 38H34.9231C36.6224 38 38 36.6224 38 34.9231V21.0769C38 19.3776 36.6224 18 34.9231 18Z" stroke="black" stroke-linecap="round" stroke-linejoin="round"/>
<path d="M14.6154 30H13.0769C12.2609 30 11.4782 29.6758 10.9012 29.0988C10.3242 28.5218 10 27.7391 10 26.9231V13.0769C10 12.2609 10.3242 11.4782 10.9012 10.9012C11.4782 10.3242 12.2609 10 13.0769 10H26.9231C27.7391 10 28.5218 10.3242 29.0988 10.9012C29.6758 11.4782 30 12.2609 30 13.0769V14.6154" stroke="black" stroke-linecap="round" stroke-linejoin="round"/>
</svg>
